<?xml version="1.0" encoding="UTF-8"?>
<svg id="Camada_1" data-name="Camada 1" xmlns="http://www.w3.org/2000/svg" viewBox="0 0 264.62 327.81">
  <defs>
    <style>
      .cls-1 {
        fill: #d55a0c;
      }

      .cls-2 {
        fill: #ffffff;
      }

      .cls-3 {
        fill: #ffffff;
      }
    </style>
  </defs>
  <path class="cls-2" d="M128.38,174.59c-44.77-2.9-80.86-37.64-83.43-83.18C41.9,37.54,92.36-7.2,145.37.97c3.84.59,12.42,1.45,11.87,6.97-.6,5.98-9.25,4.48-13.32,5.09-11.89,1.78-25.94,8.03-35.2,15.7-1.85,1.53-9.81,10.13-10.62,10.38-2.39.73-8.44-1.7-11.5-1.92-24.16-1.81-40.77,27.71-25.13,47.16,15.1,18.78,40.47,14.65,60.89,8.91,5.97.64,9.63,5.56,6.46,11.2-3.39,6.04-17.02,9.65-23.36,12.85s-8.09,3.94-7.54,11.92c1.28,18.33,18.31,35.66,34.65,42.22.39,1.8-.21,1.14-1.65,1.45-.19.04-1.68,1.57-2.54,1.7Z"/>
  <path class="cls-1" d="M132.58,171.44c6.23-.14,13.99-5.71,19.06-9.53,16.19-12.21,28.01-32.66,23.94-53.67-.83-4.29-4.14-5.49-7.85-6.84-6.74-2.46-23.87-5.22-27.39-11.44-2.75-4.86-1.02-11.36,5.07-11.94,7.36-.7,15.86,1.01,23.64.55,11.49-.68,26.79-6.23,32.06-17.24,1.22-2.55,2.71-9.95,4.05-11.45,1.92-2.13,6.9-1.78,8.75.63,2.85,3.71,6.06,16.16,6.78,21.04,8.32,56.36-34.98,106.77-92.3,103.06.78-.32,2.99-1.95,4.2-3.15Z"/>
  <path class="cls-1" d="M192.19,18.44c3.08,2.23,7.12,9.93,7.57,13.67,2.76,22.76-25.41,35.69-39.7,18.46-17.3-20.86,9.1-48.85,32.13-32.13Z"/>
  <path class="cls-2" d="M98.81,82.06c-19.87,17.87-48.38-12.1-28.96-30.27,20.77-19.43,49.29,11.98,28.96,30.27Z"/>
  <path class="cls-2" d="M255.89,326.78c-.16.96-2.68.56-3.4.51-16.17-1.07-32.28-3.72-48.8-4.72-55.28-3.36-113.29-2.89-168.45,2.11-1.98.18-26.52,3.69-26.51,2.36,16.62-3.58,33.68-6.05,50.65-7.61,56.48-5.19,123.43-5.74,179.31,3.82,5.77.99,11.42,2.65,17.2,3.53Z"/>
  <rect class="cls-2" x="6.64" y="327.3" width="1.57" height=".51"/>
  <g>
    <path class="cls-3" d="M35.62,253.12H1.5c-.83,0-1.5.67-1.5,1.5v53.08c0,.83.67,1.5,1.5,1.5h10.71c.83,0,1.5-.67,1.5-1.5v-21.03h18.8c.83,0,1.5-.67,1.5-1.5v-9c0-.83-.67-1.5-1.5-1.5H13.71v-9.56h21.92c.83,0,1.5-.67,1.5-1.5v-9c0-.83-.67-1.5-1.5-1.5Z"/>
    <path class="cls-3" d="M71.76,252.15c-8.32,0-15.13,2.72-20.23,8.09-5.08,5.35-7.66,12.46-7.66,21.14s2.57,15.52,7.63,20.75c5.08,5.24,11.84,7.89,20.11,7.89s15.12-2.67,20.22-7.93c5.09-5.25,7.67-12.27,7.67-20.86s-2.57-15.71-7.63-21.03c-5.08-5.34-11.85-8.05-20.12-8.05ZM85.65,281.16c0,5.3-1.26,9.43-3.76,12.28-2.47,2.83-5.79,4.21-10.13,4.21s-7.75-1.37-10.25-4.18c-2.51-2.82-3.78-6.97-3.78-12.31s1.27-9.58,3.79-12.43c2.5-2.84,5.85-4.21,10.25-4.21s7.66,1.38,10.13,4.21c2.49,2.85,3.76,7.04,3.76,12.43Z"/>
    <path class="cls-3" d="M151.83,290.42c-.3-.29-.7-.44-1.11-.43-.41.02-.8.21-1.07.52-4.05,4.7-8.62,6.99-13.96,6.99-4.06,0-7.3-1.37-9.9-4.2-2.6-2.82-3.92-6.93-3.92-12.22s1.31-9.52,3.9-12.42c2.58-2.89,5.97-4.29,10.37-4.29,4.99,0,8.75,2.2,11.51,6.72.21.35.56.6.96.68.4.09.82,0,1.16-.22l7.88-5.28c.66-.44.86-1.32.46-2-2.21-3.79-5.29-6.79-9.16-8.92-3.85-2.12-8.26-3.2-13.1-3.2-8.12,0-14.85,2.69-20.03,8-5.17,5.3-7.79,12.47-7.79,21.31s2.56,15.96,7.62,20.99c5.05,5.03,11.55,7.57,19.31,7.57,9.39,0,17.33-3.73,23.59-11.08.51-.6.47-1.49-.09-2.04l-6.62-6.47Z"/>
    <path class="cls-3" d="M211.08,253.12h-10.63c-.83,0-1.5.67-1.5,1.5v34.57c0,5.88-2.74,8.61-8.61,8.61s-8.46-2.74-8.46-8.61v-34.57c0-.83-.67-1.5-1.5-1.5h-10.71c-.83,0-1.5.67-1.5,1.5v34.35c0,6.39,1.99,11.56,5.92,15.35,3.91,3.78,9.38,5.7,16.25,5.7s12.34-1.92,16.28-5.7c3.96-3.8,5.96-8.96,5.96-15.36v-34.35c0-.83-.67-1.5-1.5-1.5Z"/>
    <path class="cls-3" d="M263.21,285.53c-.96-1.99-2.41-3.67-4.33-5-1.77-1.23-3.52-2.25-5.21-3.03-1.65-.76-3.75-1.56-6.21-2.36-1.47-.49-2.42-.81-2.83-.96-.41-.15-1.18-.44-2.3-.88-1.39-.54-1.81-.84-1.91-.92l-1.56-1.27c-.42-.33-.68-.66-.78-.98-.15-.44-.22-.96-.22-1.53,0-1.49.57-2.57,1.8-3.41,1.37-.94,3.24-1.41,5.55-1.41,3.56,0,7.27,1.2,11.02,3.56.34.22.76.28,1.16.19.4-.1.73-.35.94-.7l4.39-7.51c.4-.68.2-1.56-.46-2-5.09-3.43-10.92-5.16-17.34-5.16-5.92,0-10.83,1.48-14.6,4.4-3.89,3.01-5.86,7.24-5.86,12.56,0,2.5.47,4.76,1.41,6.71.94,1.97,2.35,3.66,4.18,5.02,1.71,1.27,3.43,2.32,5.12,3.12,1.65.79,3.7,1.6,6.03,2.39.41.15,1.21.42,2.41.81,1.13.36,1.89.61,2.27.76.39.14,1.01.4,1.88.76,1.07.44,1.38.69,1.43.72.31.26.68.6,1.13,1.02.29.27.47.55.57.85.13.4.19.85.19,1.33,0,1.52-.64,2.71-2.01,3.75-1.46,1.11-3.56,1.67-6.23,1.67-4.83,0-8.96-1.78-12.62-5.43-.31-.31-.73-.47-1.16-.44-.43.03-.83.24-1.09.58l-5.43,7.06c-.44.57-.41,1.37.06,1.9,2.33,2.65,5.33,4.72,8.93,6.16,3.55,1.43,7.36,2.15,11.3,2.15,6.22,0,11.44-1.66,15.51-4.94,4.17-3.36,6.28-7.68,6.28-12.84,0-2.49-.47-4.75-1.41-6.71Z"/>
  </g>
  <g>
    <path class="cls-3" d="M41.28,239.05v-20.52h2.84v20.52h-2.84Z"/>
    <path class="cls-3" d="M68.93,218.53h2.67v19.66c0,.31-.14.56-.43.75s-.64.29-1.06.29c-.8,0-1.42-.3-1.84-.89l-10.89-15.35v16.06h-2.64v-19.45c0-.36.14-.66.43-.88s.66-.33,1.12-.33c.38,0,.71.06.99.17.28.12.48.24.6.37.12.13.3.36.53.69l10.52,14.63v-15.72Z"/>
    <path class="cls-3" d="M87.55,239.36c-1.44,0-2.78-.28-4.02-.85-1.25-.56-2.23-1.36-2.96-2.37l1.72-1.78c1.44,1.67,3.21,2.5,5.32,2.5,1.32,0,2.39-.32,3.22-.96.82-.64,1.24-1.47,1.24-2.49,0-.23-.02-.44-.07-.63s-.11-.36-.17-.52c-.07-.15-.17-.31-.32-.46-.14-.15-.27-.28-.37-.39-.11-.11-.27-.22-.5-.34-.23-.12-.41-.23-.55-.3-.13-.08-.35-.17-.65-.29-.3-.12-.53-.2-.69-.26-.16-.06-.42-.15-.78-.27-.36-.12-.62-.22-.79-.27-.88-.31-1.61-.6-2.2-.88-.58-.28-1.18-.64-1.8-1.09s-1.07-1-1.38-1.64-.46-1.38-.46-2.23c0-1.82.65-3.22,1.94-4.21,1.29-.99,2.95-1.48,4.96-1.48,2.16,0,4.14.64,5.92,1.92l-1.38,2.04c-1.48-1.03-3-1.55-4.57-1.55-1.19,0-2.16.27-2.93.8-.77.54-1.15,1.3-1.15,2.3,0,.5.1.93.29,1.31.19.37.53.71,1.02,1.01.49.3.91.52,1.25.66.35.14.9.35,1.67.62.17.06.31.11.4.14.65.23,1.13.4,1.44.52.31.12.76.31,1.35.58.59.27,1.04.53,1.35.79.31.26.64.58,1.01.98.36.39.62.84.78,1.35.15.51.23,1.07.23,1.68,0,1.84-.71,3.31-2.13,4.41-1.42,1.1-3.16,1.65-5.23,1.65Z"/>
    <path class="cls-3" d="M117.14,218.53v2.5h-6.24v18.02h-2.84v-18.02h-6.24v-2.5h15.32Z"/>
    <path class="cls-3" d="M125.94,239.05v-20.52h2.84v20.52h-2.84Z"/>
    <path class="cls-3" d="M152.69,218.53v2.5h-6.24v18.02h-2.84v-18.02h-6.24v-2.5h15.32Z"/>
    <path class="cls-3" d="M175.12,237.44c-1.31,1.28-3.17,1.93-5.56,1.93s-4.25-.64-5.56-1.93c-1.31-1.28-1.97-3.03-1.97-5.23v-13.68h2.84v13.62c0,3.06,1.56,4.6,4.68,4.6s4.68-1.53,4.68-4.6v-13.62h2.85v13.68c0,2.2-.66,3.95-1.97,5.23Z"/>
    <path class="cls-3" d="M200.79,218.53v2.5h-6.24v18.02h-2.84v-18.02h-6.24v-2.5h15.32Z"/>
    <path class="cls-3" d="M224.21,236.44c-1.8,1.94-4.17,2.92-7.1,2.92s-5.3-.97-7.11-2.9c-1.81-1.93-2.72-4.48-2.72-7.64s.9-5.75,2.72-7.72c1.81-1.96,4.18-2.95,7.11-2.95s5.3.98,7.1,2.93c1.8,1.95,2.7,4.52,2.7,7.7s-.9,5.71-2.7,7.66ZM217.12,236.75c2.03,0,3.68-.7,4.94-2.1,1.26-1.4,1.9-3.35,1.9-5.86s-.63-4.5-1.9-5.91c-1.27-1.41-2.91-2.11-4.94-2.11s-3.71.7-4.99,2.11c-1.27,1.41-1.91,3.38-1.91,5.91s.64,4.46,1.91,5.86c1.27,1.4,2.94,2.1,4.99,2.1Z"/>
  </g>
</svg>